            <svg
              width="100%"
              height="100%"
              id="svg"
              viewBox="0 0 1440 600"
              xmlns="http://www.w3.org/2000/svg"
              class="transition duration-300 ease-in-out delay-150 -z-50"
            >
              <defs>
                <linearGradient
                  id="gradient"
                  x1="0%"
                  y1="50%"
                  x2="100%"
                  y2="50%"
                >
                  <stop offset="5%" stop-color="#002bdc88"></stop>
                  <stop offset="95%" stop-color="#32ded488"></stop>
                </linearGradient>
              </defs>
              <path
                d="M 0,600 C 0,600 0,200 0,200 C 97.10047846889952,186.1818181818182 194.20095693779905,172.36363636363635 280,197 C 365.79904306220095,221.63636363636365 440.2966507177033,284.72727272727275 530,262 C 619.7033492822967,239.27272727272728 724.6124401913876,130.72727272727272 826,125 C 927.3875598086124,119.27272727272728 1025.2535885167465,216.36363636363637 1127,246 C 1228.7464114832535,275.6363636363636 1334.3732057416269,237.8181818181818 1440,200 C 1440,200 1440,600 1440,600 Z"
                stroke="none"
                stroke-width="0"
                fill="url(#gradient)"
                class="transition-all duration-300 ease-in-out delay-150 path-0"
              ></path>
              <defs>
                <linearGradient
                  id="gradient"
                  x1="0%"
                  y1="50%"
                  x2="100%"
                  y2="50%"
                >
                  <stop offset="5%" stop-color="#002bdcff"></stop>
                  <stop offset="95%" stop-color="#32ded4ff"></stop>
                </linearGradient>
              </defs>
              <path
                d="M 0,600 C 0,600 0,400 0,400 C 122.42105263157893,378.77511961722485 244.84210526315786,357.55023923444975 325,349 C 405.15789473684214,340.44976076555025 443.0526315789474,344.57416267942585 533,371 C 622.9473684210526,397.42583732057415 764.9473684210526,446.15311004784684 886,461 C 1007.0526315789474,475.84688995215316 1107.157894736842,456.8133971291867 1196,441 C 1284.842105263158,425.1866028708133 1362.421052631579,412.59330143540666 1440,400 C 1440,400 1440,600 1440,600 Z"
                stroke="none"
                stroke-width="0"
                fill="url(#gradient)"
                class="transition-all duration-300 ease-in-out delay-150 path-1"
              ></path>
            </svg>
