<svg width="100%" height="100%" id="svg" viewBox="0 0 1440 400" xmlns="http://www.w3.org/2000/svg" class="transition duration-300 ease-in-out delay-150"><path d="M 0,400 C 0,400 0,100 0,100 C 80.8438880706922,112.34867452135494 161.6877761413844,124.69734904270987 210,121 C 258.3122238586156,117.30265095729013 274.0927835051546,97.55927835051546 331,81 C 387.9072164948454,64.44072164948454 485.9410898379971,51.065537555228275 564,63 C 642.0589101620029,74.93446244477173 700.1428571428571,112.17857142857143 747,110 C 793.8571428571429,107.82142857142857 829.4874815905744,66.22017673048603 878,70 C 926.5125184094256,73.77982326951397 987.9072164948454,122.94072164948452 1063,132 C 1138.0927835051546,141.05927835051548 1226.8836524300443,110.01693667157585 1292,98 C 1357.1163475699557,85.98306332842415 1398.558173784978,92.99153166421208 1440,100 C 1440,100 1440,400 1440,400 Z" stroke="none" stroke-width="0" fill="#ffffff66" class="transition-all duration-300 ease-in-out delay-150 path-0"></path><path d="M 0,400 C 0,400 0,200 0,200 C 60.32087628865979,210.06516936671574 120.64175257731958,220.1303387334315 181,215 C 241.35824742268042,209.8696612665685 301.75386597938143,189.5438144329897 361,182 C 420.24613402061857,174.4561855670103 478.34278350515467,179.6944035346097 545,178 C 611.6572164948453,176.3055964653903 686.875,167.67857142857142 742,163 C 797.125,158.32142857142858 832.1572164948453,157.59131075110457 890,173 C 947.8427835051547,188.40868924889543 1028.4961340206187,219.95618556701032 1085,233 C 1141.5038659793813,246.04381443298968 1173.8582474226805,240.58394698085417 1229,232 C 1284.1417525773195,223.41605301914583 1362.0708762886597,211.7080265095729 1440,200 C 1440,200 1440,400 1440,400 Z" stroke="none" stroke-width="0" fill="#ffffff88" class="transition-all duration-300 ease-in-out delay-150 path-1"></path><path d="M 0,400 C 0,400 0,300 0,300 C 73.68796023564065,306.9377761413844 147.3759204712813,313.8755522827688 205,320 C 262.6240795287187,326.1244477172312 304.18427835051546,331.4355670103092 352,320 C 399.81572164948454,308.5644329896908 453.88696612665683,280.38217967599405 521,265 C 588.1130338733432,249.61782032400592 668.2678571428572,247.03571428571433 727,269 C 785.7321428571428,290.96428571428567 823.0416053019145,337.4749631811487 879,332 C 934.9583946980855,326.5250368188513 1009.5657216494844,269.0644329896907 1083,264 C 1156.4342783505156,258.9355670103093 1228.6955081001474,306.26730486008836 1288,321 C 1347.3044918998526,335.73269513991164 1393.6522459499263,317.8663475699558 1440,300 C 1440,300 1440,400 1440,400 Z" stroke="none" stroke-width="0" fill="#ffffffff" class="transition-all duration-300 ease-in-out delay-150 path-2"></path></svg>